<svg width="57" height="56" viewBox="0 0 57 56" fill="none" xmlns="http://www.w3.org/2000/svg">
<g clip-path="url(#clip0_1039_6670)">
<path d="M15.784 37.8063C14.0092 37.8063 12.2831 37.3078 10.8075 36.3523C7.08167 33.9402 5.73772 29.397 7.5382 25.3042L15.2044 7.87833C15.525 7.15048 16.35 6.78822 17.1228 7.03582L28.767 10.7606C29.1885 10.8952 29.4339 11.3215 29.3321 11.741L24.7078 30.7721C24.0632 34.2942 21.0983 37.0701 17.322 37.6825C16.8082 37.7656 16.2936 37.8071 15.784 37.8071V37.8063ZM16.7219 8.65685L9.11042 25.9572C7.63823 29.3023 8.72656 33.008 11.7556 34.9697C13.2936 35.9651 15.1702 36.3464 17.0408 36.0432C20.1108 35.5446 22.5175 33.3013 23.0279 30.4606C23.0304 30.4448 23.0338 30.4282 23.0381 30.4124L27.4872 12.1L16.721 8.65602L16.7219 8.65685Z" fill="#C2AE8F"/>
<path d="M15.7831 37.8062C14.0092 37.8062 12.2839 37.3086 10.8066 36.3531C7.08422 33.9419 5.73941 29.4028 7.53476 25.3116C7.54502 25.2875 7.56127 25.251 7.58948 25.1878L7.65189 25.0482C7.74764 24.8314 7.93402 24.6652 8.16399 24.5896C8.39397 24.514 8.64618 24.5372 8.85734 24.6536C11.0092 25.8342 13.8245 26.4823 16.7928 26.4823C16.8185 26.4823 16.8441 26.4823 16.8698 26.4823H16.8732C17.3434 26.4823 17.7264 26.8521 17.7281 27.3099C17.7298 27.7685 17.3485 28.1424 16.8766 28.1441C13.9656 28.1549 11.1682 27.5882 8.88299 26.5363C7.77073 29.7219 8.90009 33.1218 11.7547 34.9705C13.2936 35.9659 15.171 36.3464 17.0407 36.0431C20.1117 35.5454 22.5174 33.3021 23.027 30.4622C23.0295 30.4464 23.033 30.4298 23.0372 30.414L23.6913 27.7211C22.8261 27.7311 21.9686 27.7976 21.2 27.8641L20.8341 27.8956C20.3639 27.9372 19.9484 27.5998 19.9065 27.1429C19.8646 26.6859 20.2108 26.2821 20.681 26.2405L21.0478 26.2081C22.1815 26.1109 23.4998 26.012 24.8112 26.0793C25.0643 26.0926 25.2985 26.2139 25.4507 26.4109C25.6029 26.6078 25.6567 26.8604 25.5986 27.0997L24.7069 30.7713C24.0632 34.2933 21.0983 37.0684 17.322 37.6808C16.8082 37.7639 16.2935 37.8054 15.7831 37.8054V37.8062Z" fill="#C2AE8F"/>
<path d="M9.68161 48.2943C9.59269 48.2943 9.50293 48.281 9.41401 48.2528C8.96517 48.109 8.72152 47.6396 8.86942 47.2042L12.5354 36.3788C12.6833 35.9426 13.1663 35.7058 13.6143 35.8495C14.0631 35.9933 14.3068 36.4627 14.1589 36.8981L10.4929 47.7235C10.375 48.0733 10.0398 48.2951 9.68075 48.2951L9.68161 48.2943Z" fill="#C2AE8F"/>
<path d="M15.2848 55.1001C15.1531 55.1001 15.0206 55.0793 14.8915 55.0386L0.860386 50.5502C0.204654 50.3408 -0.152708 49.652 0.0627352 49.0148C0.448309 47.8765 1.49304 47.0955 2.72328 47.0257L9.63113 46.6335C9.84828 46.6219 10.0612 46.6892 10.2279 46.8246L15.5455 51.1268C16.4928 51.8937 16.8562 53.1243 16.4706 54.2634C16.3663 54.5716 16.144 54.8226 15.8456 54.9688C15.6678 55.056 15.4763 55.1001 15.2831 55.1001H15.2848ZM1.91024 49.1361L14.9112 53.2946C14.8949 52.9548 14.7342 52.6315 14.4529 52.4039L9.39517 48.311L2.82416 48.6841C2.45825 48.7049 2.13167 48.8727 1.9111 49.1361H1.91024Z" fill="#C2AE8F"/>
<path d="M41.2156 37.8064C40.7052 37.8064 40.1914 37.7648 39.6775 37.6817C35.9013 37.0694 32.9364 34.2935 32.2918 30.7714L27.6675 11.7403C27.5657 11.3207 27.8111 10.8953 28.2326 10.7599L39.8767 7.03509C40.6505 6.78749 41.4746 7.14975 41.7952 7.87759L49.4614 25.3034C51.2619 29.3963 49.9179 33.9395 46.1921 36.3515C44.7165 37.307 42.9904 37.8055 41.2156 37.8055V37.8064ZM29.5116 12.1009L33.9606 30.4133C33.964 30.4291 33.9675 30.4449 33.9709 30.4615C34.4813 33.3022 36.8879 35.5456 39.958 36.0441C41.8286 36.3474 43.706 35.966 45.2432 34.9706C48.2722 33.0098 49.3596 29.3033 47.8883 25.9582L40.2769 8.65778L29.5107 12.1017L29.5116 12.1009Z" fill="#C2AE8F"/>
<path d="M41.2153 37.8063C40.7049 37.8063 40.1902 37.7647 39.6764 37.6816C35.9002 37.0693 32.9353 34.2942 32.2915 30.7721L31.3998 27.1005C31.3417 26.8612 31.3956 26.6086 31.5477 26.4117C31.6999 26.2148 31.9333 26.0935 32.1864 26.0802C33.6637 26.0046 35.094 26.1317 36.6089 26.2663C37.5152 26.3469 38.4522 26.4308 39.4063 26.4674C42.6738 26.5953 45.7764 25.9514 48.1411 24.6544C48.3523 24.5381 48.6045 24.5157 48.8345 24.5905C49.0644 24.6661 49.2508 24.8322 49.3466 25.0491L49.409 25.1887C49.4372 25.2527 49.4534 25.2884 49.4637 25.3116C51.259 29.4029 49.9151 33.9427 46.1927 36.3539C44.7154 37.3094 42.9901 37.8071 41.2162 37.8071L41.2153 37.8063ZM33.3072 27.7203L33.9612 30.4132C33.9646 30.429 33.968 30.4448 33.9715 30.4614C34.481 33.3013 36.8868 35.5446 39.9577 36.0423C41.8274 36.3456 43.7049 35.9651 45.2437 34.9697C48.0975 33.121 49.2277 29.7227 48.1155 26.5364C45.6148 27.6904 42.5387 28.2513 39.3379 28.1266C38.3402 28.0884 37.3801 28.0028 36.4525 27.9197C35.3676 27.8234 34.328 27.7303 33.3063 27.7187L33.3072 27.7203Z" fill="#C2AE8F"/>
<path d="M47.3182 48.2944C46.9591 48.2944 46.6248 48.0725 46.506 47.7227L42.84 36.8973C42.6921 36.4611 42.9367 35.9917 43.3846 35.8488C43.8326 35.7059 44.3165 35.9427 44.4636 36.378L48.1295 47.2034C48.2774 47.6396 48.0329 48.1091 47.5849 48.2528C47.496 48.2811 47.4062 48.2944 47.3173 48.2944H47.3182Z" fill="#C2AE8F"/>
<path d="M41.7188 55.0992C41.1931 55.0992 40.7023 54.7743 40.5288 54.2633C40.1432 53.125 40.5065 51.8937 41.4538 51.1268L46.7715 46.8237C46.9382 46.6891 47.1511 46.621 47.3682 46.6326L54.2761 47.0248C55.5072 47.0946 56.5519 47.8756 56.9375 49.0139C57.1529 49.6512 56.7956 50.3391 56.1407 50.5493L48.7549 52.9115C48.3069 53.0544 47.8231 52.8176 47.676 52.3822C47.5281 51.946 47.7726 51.4766 48.2206 51.3337L55.0908 49.136C54.8703 48.8727 54.5428 48.7048 54.1769 48.684L47.6068 48.311L42.549 52.4039C42.2677 52.6315 42.107 52.9547 42.0907 53.2945L44.4444 52.5418C44.8932 52.3989 45.3762 52.6357 45.5241 53.071C45.672 53.5072 45.4275 53.9767 44.9796 54.1204L42.1113 55.0377C41.9822 55.0793 41.8505 55.0984 41.7214 55.0984L41.7188 55.0992Z" fill="#C2AE8F"/>
<path d="M43.0614 3.19478C42.9392 3.19478 42.8152 3.16903 42.6981 3.11585C42.2706 2.9206 42.0877 2.4254 42.2886 2.00996L43.0307 0.477006C43.2316 0.0615712 43.7411 -0.116235 44.1686 0.0790195C44.5961 0.274274 44.779 0.769473 44.5781 1.18491L43.836 2.71786C43.6907 3.01864 43.3829 3.19478 43.0623 3.19478H43.0614Z" fill="#C2AE8F"/>
<path d="M49.2795 11.8899C48.84 11.8899 48.4656 11.5625 48.4288 11.1288C48.3895 10.6718 48.7383 10.2697 49.2094 10.2314L50.9466 10.0894C51.4168 10.0511 51.8306 10.3901 51.8699 10.8479C51.9092 11.3049 51.5604 11.7071 51.0894 11.7453L49.3521 11.8874C49.3273 11.889 49.3034 11.8907 49.2795 11.8907V11.8899Z" fill="#C2AE8F"/>
<path d="M47.3712 6.73247C47.1002 6.73247 46.8343 6.60784 46.6685 6.37603C46.3992 5.99881 46.4949 5.48118 46.8831 5.21945L48.3151 4.25232C48.7032 3.9906 49.2358 4.08365 49.5052 4.46087C49.7745 4.83808 49.6787 5.35572 49.2906 5.61744L47.8586 6.58457C47.7098 6.68511 47.5397 6.7333 47.3712 6.7333V6.73247Z" fill="#C2AE8F"/>
<path d="M13.9372 3.19478C13.6166 3.19478 13.3088 3.01864 13.1635 2.71786L12.4214 1.18491C12.2205 0.769473 12.4034 0.275105 12.8309 0.0790195C13.2584 -0.116235 13.7671 0.0615712 13.9688 0.477006L14.7109 2.00996C14.9118 2.4254 14.7289 2.91977 14.3014 3.11585C14.1834 3.16986 14.0595 3.19478 13.9381 3.19478H13.9372Z" fill="#C2AE8F"/>
<path d="M7.72041 11.8897C7.69648 11.8897 7.67254 11.8889 7.64774 11.8864L5.91052 11.7443C5.44031 11.7061 5.09064 11.3039 5.12997 10.847C5.1693 10.39 5.58308 10.0502 6.0533 10.0884L7.79052 10.2305C8.26073 10.2687 8.6104 10.6708 8.57107 11.1278C8.53345 11.5615 8.15985 11.8889 7.72041 11.8889V11.8897Z" fill="#C2AE8F"/>
<path d="M9.62857 6.73257C9.46015 6.73257 9.29002 6.68438 9.14126 6.58384L7.70925 5.61671C7.32111 5.35498 7.22536 4.83735 7.49466 4.46014C7.76396 4.08292 8.29659 3.98986 8.68473 4.25159L10.1167 5.21872C10.5049 5.48045 10.6006 5.99808 10.3313 6.37529C10.1655 6.60794 9.89873 6.73174 9.62857 6.73174V6.73257Z" fill="#C2AE8F"/>
</g>
<defs>
<clipPath id="clip0_1039_6670">
<rect width="57" height="55.1" fill="white"/>
</clipPath>
</defs>
</svg>
