<svg width="52" height="55" viewBox="0 0 52 55" fill="none" xmlns="http://www.w3.org/2000/svg">
<g clip-path="url(#clip0_1027_12780)">
<path d="M51.5406 12.1356L26.3532 0.0807373C26.13 -0.0256103 25.87 -0.0256103 25.6468 0.0807373L0.459391 12.1356C0.178772 12.2699 0 12.5524 0 12.8607V42.1385C0 42.4479 0.178772 42.7294 0.459391 42.8636L25.6468 54.9196C25.7584 54.9733 25.8797 55.0002 26 55.0002C26.1203 55.0002 26.2416 54.9733 26.3532 54.9196L51.5406 42.8636C51.8212 42.7294 52 42.4468 52 42.1385V12.8618C52 12.5524 51.8212 12.271 51.5406 12.1367V12.1356ZM26 1.70066L49.3184 12.8618L42.5587 16.0973C42.5164 16.0651 42.4709 16.035 42.4211 16.0114L19.2608 4.92546L26 1.69958V1.70066ZM17.4265 5.8364L40.7103 16.9814L35.9408 19.2641L12.6668 8.12341L17.4265 5.8364ZM41.2552 18.51V26.948L36.8011 29.0803V20.6424L41.2552 18.51ZM50.3748 41.6337L26.8126 52.9108V25.4226L32.4326 22.7328C32.8367 22.5394 33.0057 22.0582 32.8107 21.6575C32.6157 21.2568 32.1303 21.0892 31.725 21.2826L25.9989 24.0229L23.7453 22.9444C23.3412 22.751 22.8558 22.9186 22.6607 23.3193C22.4657 23.72 22.6347 24.2012 23.0389 24.3946L25.1863 25.4226V52.9108L1.6252 41.6337V14.1455L19.5674 22.7328C19.6812 22.7876 19.8015 22.8134 19.9207 22.8134C20.2229 22.8134 20.5133 22.6458 20.6531 22.3579C20.8481 21.9572 20.6791 21.4759 20.275 21.2826L2.68159 12.8618L10.7534 8.99783L35.1629 20.681C35.1629 20.681 35.1705 20.6907 35.1737 20.695V30.363C35.1737 30.6401 35.3178 30.8979 35.554 31.0451C35.6851 31.1267 35.8357 31.1686 35.9863 31.1686C36.1066 31.1686 36.2279 31.1418 36.3395 31.0881L42.4189 28.178C42.6995 28.0437 42.8783 27.7612 42.8783 27.4529V17.7323L50.3726 14.1455V41.6337H50.3748Z" fill="#C2AE8F"/>
<path d="M8.33113 38.5086L4.63433 36.7394C4.2302 36.546 3.74481 36.7136 3.54978 37.1143C3.35476 37.515 3.52378 37.9962 3.92791 38.1907L7.62471 39.9599C7.73847 40.0147 7.85874 40.0405 7.97683 40.0405C8.27912 40.0405 8.56949 39.8729 8.70926 39.585C8.90428 39.1843 8.73526 38.7031 8.33113 38.5086Z" fill="#C2AE8F"/>
<path d="M11.7326 36.3129L4.64019 32.9184C4.23606 32.725 3.75066 32.8926 3.55564 33.2933C3.36062 33.6939 3.52964 34.1752 3.93377 34.3696L11.0272 37.7642C11.141 37.8189 11.2613 37.8447 11.3794 37.8447C11.6817 37.8447 11.972 37.6771 12.1118 37.3893C12.3068 36.9886 12.1378 36.5062 11.7337 36.3129H11.7326Z" fill="#C2AE8F"/>
</g>
<defs>
<clipPath id="clip0_1027_12780">
<rect width="52" height="55" fill="white"/>
</clipPath>
</defs>
</svg>
