<svg width="57" height="59" viewBox="0 0 57 59" fill="none" xmlns="http://www.w3.org/2000/svg">
<g clip-path="url(#clip0_1027_12836)">
<path d="M51.0658 11.8811H38.5942C38.1153 11.8811 37.7266 11.4939 37.7266 11.0169C37.7266 10.5398 38.1153 10.1526 38.5942 10.1526H51.0658C51.5447 10.1526 51.9334 10.5398 51.9334 11.0169C51.9334 11.4939 51.5447 11.8811 51.0658 11.8811Z" fill="#C2AE8F"/>
<path d="M51.0658 15.4759H38.5942C38.1153 15.4759 37.7266 15.0887 37.7266 14.6116C37.7266 14.1345 38.1153 13.7473 38.5942 13.7473H51.0658C51.5447 13.7473 51.9334 14.1345 51.9334 14.6116C51.9334 15.0887 51.5447 15.4759 51.0658 15.4759Z" fill="#C2AE8F"/>
<path d="M51.0658 8.28666H38.5942C38.1153 8.28666 37.7266 7.89947 37.7266 7.42238C37.7266 6.9453 38.1153 6.55811 38.5942 6.55811H51.0658C51.5447 6.55811 51.9334 6.9453 51.9334 7.42238C51.9334 7.89947 51.5447 8.28666 51.0658 8.28666Z" fill="#C2AE8F"/>
<path d="M51.0658 19.0704H38.5942C38.1153 19.0704 37.7266 18.6832 37.7266 18.2061C37.7266 17.729 38.1153 17.3418 38.5942 17.3418H51.0658C51.5447 17.3418 51.9334 17.729 51.9334 18.2061C51.9334 18.6832 51.5447 19.0704 51.0658 19.0704Z" fill="#C2AE8F"/>
<path d="M44.83 22.6648H38.5942C38.1153 22.6648 37.7266 22.2776 37.7266 21.8006C37.7266 21.3235 38.1153 20.9363 38.5942 20.9363H44.83C45.3089 20.9363 45.6976 21.3235 45.6976 21.8006C45.6976 22.2776 45.3089 22.6648 44.83 22.6648Z" fill="#C2AE8F"/>
<path d="M30.0345 34.6817H17.563C17.084 34.6817 16.6953 34.2945 16.6953 33.8174C16.6953 33.3403 17.084 32.9531 17.563 32.9531H30.0345C30.5134 32.9531 30.9021 33.3403 30.9021 33.8174C30.9021 34.2945 30.5134 34.6817 30.0345 34.6817Z" fill="#C2AE8F"/>
<path d="M30.0345 38.2771H17.563C17.084 38.2771 16.6953 37.8899 16.6953 37.4129C16.6953 36.9358 17.084 36.5486 17.563 36.5486H30.0345C30.5134 36.5486 30.9021 36.9358 30.9021 37.4129C30.9021 37.8899 30.5134 38.2771 30.0345 38.2771Z" fill="#C2AE8F"/>
<path d="M21.0266 31.0872H17.563C17.084 31.0872 16.6953 30.7 16.6953 30.2229C16.6953 29.7458 17.084 29.3586 17.563 29.3586H21.0266C21.5055 29.3586 21.8942 29.7458 21.8942 30.2229C21.8942 30.7 21.5055 31.0872 21.0266 31.0872Z" fill="#C2AE8F"/>
<path d="M30.0345 41.8717H17.563C17.084 41.8717 16.6953 41.4845 16.6953 41.0075C16.6953 40.5304 17.084 40.1432 17.563 40.1432H30.0345C30.5134 40.1432 30.9021 40.5304 30.9021 41.0075C30.9021 41.4845 30.5134 41.8717 30.0345 41.8717Z" fill="#C2AE8F"/>
<path d="M23.7987 45.4662H17.563C17.084 45.4662 16.6953 45.079 16.6953 44.6019C16.6953 44.1249 17.084 43.7377 17.563 43.7377H23.7987C24.2777 43.7377 24.6664 44.1249 24.6664 44.6019C24.6664 45.079 24.2777 45.4662 23.7987 45.4662Z" fill="#C2AE8F"/>
<path d="M26.9019 19.7722C26.6165 19.7722 26.3328 19.6831 26.0898 19.5077C25.6603 19.1974 25.4495 18.6806 25.5389 18.1594L25.9371 15.8483L24.2513 14.2114C23.8712 13.8423 23.7368 13.3013 23.9007 12.7983C24.0647 12.2953 24.4925 11.9366 25.0183 11.8605L27.347 11.5235L28.3891 9.42069C28.6233 8.94706 29.0988 8.65234 29.6298 8.65234C30.1608 8.65234 30.6354 8.94706 30.8705 9.42069L31.9126 11.5235L34.2422 11.8605C34.7671 11.9366 35.1949 12.2961 35.3589 12.7983C35.5229 13.3013 35.3892 13.8423 35.0092 14.2114L33.3234 15.8483L33.7216 18.1594C33.811 18.6806 33.6002 19.1965 33.1715 19.5077C32.7421 19.818 32.1842 19.8586 31.7139 19.6123L29.6307 18.5215L27.5475 19.6123C27.3436 19.7194 27.1223 19.7722 26.9019 19.7722ZM29.6307 16.7472C29.8519 16.7472 30.0732 16.7999 30.2745 16.9053L31.8909 17.7515L31.582 15.959C31.5048 15.5113 31.654 15.0558 31.9803 14.7386L33.2878 13.469L31.4805 13.2071C31.0302 13.1423 30.6406 12.8605 30.4385 12.4534L29.6307 10.8225L28.822 12.4534C28.6207 12.8605 28.2312 13.1423 27.78 13.2071L25.9727 13.469L27.2802 14.7386C27.6065 15.0549 27.7557 15.5113 27.6785 15.959L27.3696 17.7515L28.986 16.9053C29.1873 16.7999 29.4086 16.7472 29.6298 16.7472H29.6307Z" fill="#C2AE8F"/>
<path d="M8.8684 41.4897C8.58989 41.4897 8.31137 41.3869 8.09446 41.1803C7.41336 40.5321 5.03341 38.2694 4.9718 38.2115C4.38701 37.6558 4.05731 36.9056 4.04342 36.0992C4.02954 35.2928 4.33408 34.5323 4.90066 33.9558C5.96005 32.8781 7.67105 32.7813 8.86667 33.6766C10.0623 32.7813 11.7733 32.8781 12.8335 33.9558C13.4001 34.5323 13.7047 35.2928 13.6908 36.0992C13.6769 36.9056 13.3472 37.6558 12.7624 38.2124C12.7017 38.2703 10.3226 40.533 9.64061 41.1803C9.4237 41.3869 9.14518 41.4897 8.86667 41.4897H8.8684ZM7.0368 34.7959C6.70883 34.7959 6.38433 34.9195 6.14139 35.1658C5.90192 35.4087 5.77351 35.7302 5.77958 36.0698C5.78566 36.4104 5.92448 36.7267 6.17176 36.9609C6.22382 37.011 7.93048 38.6333 8.86927 39.5261C9.80806 38.6333 11.5139 37.011 11.5659 36.9618C11.8141 36.7258 11.9529 36.4095 11.959 36.0698C11.965 35.7302 11.8358 35.4087 11.5971 35.1658C11.1147 34.6758 10.307 34.6723 9.79505 35.1589L9.64321 35.3032C9.20939 35.7155 8.53002 35.7155 8.0962 35.3032L7.94523 35.1597C7.69101 34.9177 7.36304 34.7967 7.03854 34.7967L7.0368 34.7959Z" fill="#C2AE8F"/>
<path d="M40.7206 36.6809C40.3015 36.6809 39.8859 36.5279 39.5554 36.2288C38.9732 35.7034 38.8144 34.8771 39.1615 34.1727C39.9371 32.5971 40.5315 30.9446 40.928 29.2619C40.9306 29.2524 40.9375 29.2221 40.9106 29.1884C40.8915 29.1642 40.8655 29.1513 40.8343 29.1513H26.4192C22.8003 29.1513 19.8555 26.2179 19.8555 22.613V6.53827C19.8555 2.93336 22.8003 0 26.4192 0H50.4365C54.0555 0 57.0003 2.93336 57.0003 6.53827V12.3704C57.0003 12.8475 56.6116 13.2347 56.1326 13.2347C55.6537 13.2347 55.265 12.8475 55.265 12.3704V6.53827C55.265 3.88666 53.0993 1.72856 50.4365 1.72856H26.4192C23.7573 1.72856 21.5908 3.8858 21.5908 6.53827V22.6139C21.5908 25.2655 23.7564 27.4236 26.4192 27.4236H40.8343C41.3974 27.4236 41.9206 27.6759 42.2702 28.115C42.6182 28.5523 42.7448 29.115 42.6164 29.6569C42.1895 31.4658 41.551 33.241 40.7189 34.9324C40.7171 34.9359 40.7154 34.9393 40.7145 34.9419C40.7171 34.9445 40.7197 34.9471 40.7224 34.9497C40.7241 34.9488 40.7258 34.948 40.7284 34.9463C42.8151 33.6593 45.8354 31.4779 48.3698 28.3933C48.8765 27.7762 49.6296 27.4227 50.4365 27.4227C53.0985 27.4227 55.265 25.2655 55.265 22.613V16.4031C55.265 15.9261 55.6537 15.5389 56.1326 15.5389C56.6116 15.5389 57.0003 15.9261 57.0003 16.4031V22.613C57.0003 26.2179 54.0555 29.1513 50.4365 29.1513C50.1519 29.1513 49.8882 29.274 49.7129 29.4883C47.0275 32.7579 43.8415 35.0603 41.6421 36.4164C41.3549 36.5936 41.0364 36.68 40.7206 36.68V36.6809Z" fill="#C2AE8F"/>
<path d="M16.2796 59C15.9638 59 15.6454 58.9135 15.3582 58.7363C13.1587 57.3803 9.97359 55.0779 7.28736 51.8083C7.11123 51.5939 6.84746 51.4712 6.56374 51.4712C2.94479 51.4712 0 48.5379 0 44.9329V28.8574C0 25.2525 2.94479 22.3191 6.56374 22.3191H20.7524C21.1975 22.3191 21.5705 22.6553 21.6157 23.0969C21.7345 24.2724 22.289 25.3631 23.1766 26.1677C24.0694 26.9776 25.2207 27.4235 26.4198 27.4235H36.2485C36.6936 27.4235 37.0667 27.7597 37.1118 28.2005C37.1335 28.4183 37.1448 28.6387 37.1448 28.8574V44.9329C37.1448 48.5379 34.2009 51.4712 30.581 51.4712H25.8229C25.3439 51.4712 24.9552 51.084 24.9552 50.6069C24.9552 50.1299 25.3439 49.7427 25.8229 49.7427H30.581C33.243 49.7427 35.4095 47.5854 35.4095 44.9329V29.1512H26.4189C24.7869 29.1512 23.2208 28.5454 22.0078 27.4451C21.0014 26.5325 20.3107 25.3467 20.0157 24.0476H6.56374C3.9018 24.0476 1.73529 26.2049 1.73529 28.8574V44.9329C1.73529 47.5846 3.90094 49.7427 6.56374 49.7427C7.37065 49.7427 8.12377 50.0962 8.63047 50.7132C11.1649 53.7987 14.1843 55.9793 16.271 57.2662C16.2736 57.2671 16.2753 57.2688 16.277 57.2697C16.2796 57.2671 16.2831 57.2645 16.2848 57.2619C16.284 57.2593 16.2822 57.2567 16.2805 57.2524C15.4476 55.5601 14.809 53.7849 14.383 51.9768C14.2554 51.4349 14.3812 50.8723 14.7292 50.4349C15.0788 49.995 15.602 49.7427 16.1651 49.7427H21.7727C22.2516 49.7427 22.6404 50.1299 22.6404 50.6069C22.6404 51.084 22.2516 51.4712 21.7727 51.4712H16.1651C16.1339 51.4712 16.1087 51.4833 16.0888 51.5084C16.0619 51.5421 16.0688 51.5723 16.0714 51.5818C16.4679 53.2637 17.0623 54.9162 17.8379 56.4927C18.185 57.1971 18.0262 58.0233 17.444 58.5488C17.1126 58.8478 16.6978 59.0008 16.2788 59.0008L16.2796 59Z" fill="#C2AE8F"/>
</g>
<defs>
<clipPath id="clip0_1027_12836">
<rect width="57" height="59" fill="white"/>
</clipPath>
</defs>
</svg>
