<svg width="54" height="54" viewBox="0 0 54 54" fill="none" xmlns="http://www.w3.org/2000/svg">
<g clip-path="url(#clip0_1027_12822)">
<path d="M50.9627 47.9218H49.1845V34.098C50.893 34.407 51.5723 35.6547 51.6092 35.7264C51.7495 36.0007 52.0268 36.1599 52.3158 36.1599C52.435 36.1599 52.5563 36.1325 52.6691 36.0766C53.0604 35.8804 53.2197 35.4048 53.0235 35.0135C52.9792 34.9259 52.0806 33.1836 49.8447 32.6193C50.9468 31.706 52.608 31.6142 52.6291 31.6132C53.0657 31.5942 53.4043 31.225 53.3853 30.7884C53.3673 30.3507 52.9929 30.009 52.5595 30.0301C52.4561 30.0343 50.7591 30.1208 49.3142 31.0468C48.9904 28.8847 47.4189 27.8057 47.3314 27.7467C46.9675 27.5041 46.4729 27.6001 46.2292 27.965C45.9866 28.3289 46.0826 28.8193 46.4465 29.0619C46.5034 29.1009 47.4885 29.8023 47.729 31.2271C46.2345 30.1313 44.3297 30.0343 44.2211 30.029C43.7866 30.0079 43.4164 30.3486 43.3974 30.7852C43.3773 31.2219 43.7159 31.5921 44.1525 31.6121C44.1736 31.6121 45.8348 31.7049 46.9369 32.6183C44.701 33.1825 43.8024 34.9249 43.7581 35.0124C43.5619 35.4037 43.7191 35.8825 44.1114 36.0787C44.2264 36.1357 44.3477 36.1631 44.4668 36.1631C44.7558 36.1631 45.0343 36.0038 45.1724 35.7275C45.2041 35.6663 45.8812 34.4091 47.5971 34.098V47.9218H42.4671V24.6828C42.4671 24.2451 42.1128 23.8907 41.674 23.8907C41.2353 23.8907 40.8809 24.2462 40.8809 24.6828V47.9218H34.8766V36.3814C34.8766 35.9437 34.5222 35.5883 34.0834 35.5883H19.9095C19.4718 35.5883 19.1174 35.9427 19.1174 36.3814V40.963C19.1174 41.4007 19.4729 41.7561 19.9095 41.7561C20.3461 41.7561 20.7016 41.4017 20.7016 40.963V37.1745H26.2028V47.9229H20.7016V44.1334C20.7016 43.6957 20.3472 43.3402 19.9095 43.3402C19.4718 43.3402 19.1174 43.6946 19.1174 44.1334V47.9229H13.1131V13.963C13.1131 13.5253 12.7587 13.1709 12.321 13.1709C11.8833 13.1709 11.5289 13.5263 11.5289 13.963V47.9218H6.39895V34.098C8.10859 34.4081 8.78676 35.6568 8.82367 35.7264C8.96289 36.0007 9.24133 36.1599 9.53031 36.1599C9.64949 36.1599 9.77078 36.1325 9.88363 36.0766C10.2749 35.8804 10.4342 35.4048 10.238 35.0135C10.1937 34.9259 9.29512 33.1836 7.05918 32.6193C8.16133 31.706 9.82246 31.6142 9.84355 31.6132C10.2802 31.5942 10.6187 31.225 10.5998 30.7884C10.5808 30.3507 10.2116 30.01 9.775 30.0301C9.66531 30.0343 7.76055 30.1324 6.26711 31.2282C6.50547 29.8096 7.48422 29.1072 7.54855 29.0629C7.90926 28.8193 8.00523 28.3299 7.76371 27.9671C7.52113 27.6032 7.02859 27.5041 6.66473 27.7477C6.57719 27.8057 5.0057 28.8847 4.68191 31.0479C3.23594 30.1218 1.53895 30.0354 1.43664 30.0311C1 30.0111 0.631914 30.3507 0.61293 30.7873C0.593945 31.224 0.931445 31.5942 1.36809 31.6142C1.38918 31.6142 3.05031 31.707 4.15246 32.6204C1.91652 33.1847 1.01793 34.927 0.973633 35.0145C0.777461 35.4058 0.936719 35.8825 1.32801 36.0777C1.44191 36.1346 1.5632 36.161 1.68133 36.161C1.97242 36.161 2.25191 36.0007 2.39113 35.7222C2.39852 35.7075 3.06613 34.4144 4.81375 34.0991V47.9229H3.03555C1.3607 47.9229 -0.00195312 49.2855 -0.00195312 50.9635C-0.00195312 52.6415 1.3607 54.001 3.03555 54.001H50.9605C52.6354 54.001 53.998 52.6384 53.998 50.9604C53.998 49.2823 52.6354 47.9229 50.9605 47.9229L50.9627 47.9218ZM27.7933 37.1735H33.2945V47.9218H27.7933V37.1735ZM50.9627 52.4148H3.03766C2.23715 52.4148 1.58535 51.763 1.58535 50.9593C1.58535 50.1556 2.23715 49.507 3.03766 49.507H50.9627C51.7642 49.507 52.415 50.1588 52.415 50.9625C52.415 51.7661 51.7632 52.4148 50.9627 52.4148Z" fill="#C2AE8F"/>
<path d="M11.5305 6.06438V10.7925C11.5305 11.2302 11.8849 11.5846 12.3226 11.5846C12.7603 11.5846 13.1146 11.2302 13.1146 10.7925V6.06438H40.8825V21.5124C40.8825 21.9501 41.2368 22.3045 41.6756 22.3045C42.1143 22.3045 42.4687 21.9501 42.4687 21.5124V6.06438C43.4886 6.06438 44.3176 5.23434 44.3176 4.21551V1.84984C44.3176 0.829961 43.4875 0.000976562 42.4677 0.000976562H11.5305C10.5106 0.000976562 9.68164 0.831016 9.68164 1.84984V4.21551C9.68164 5.23539 10.5106 6.06438 11.5305 6.06438ZM11.2658 1.84879C11.2658 1.70324 11.3839 1.58406 11.5295 1.58406H42.4677C42.6132 1.58406 42.7324 1.70219 42.7324 1.84879V4.21445C42.7324 4.36 42.6143 4.47918 42.4677 4.47918H11.5305C11.385 4.47918 11.2668 4.36105 11.2668 4.21445V1.84879H11.2658Z" fill="#C2AE8F"/>
<path d="M28.5993 26.6445H25.4025C24.6737 26.6445 24.082 27.2373 24.082 27.965V31.1618C24.082 31.8905 24.6748 32.4822 25.4025 32.4822H28.5993C29.328 32.4822 29.9197 31.8895 29.9197 31.1618V27.965C29.9197 27.2362 29.327 26.6445 28.5993 26.6445ZM28.3345 30.8981H25.6662V28.2297H28.3345V30.8981Z" fill="#C2AE8F"/>
<path d="M20.7282 26.6445H17.5314C16.8026 26.6445 16.2109 27.2373 16.2109 27.965V31.1618C16.2109 31.8905 16.8037 32.4822 17.5314 32.4822H20.7282C21.457 32.4822 22.0486 31.8895 22.0486 31.1618V27.965C22.0486 27.2362 21.4559 26.6445 20.7282 26.6445ZM20.4634 30.8981H17.7951V28.2297H20.4634V30.8981Z" fill="#C2AE8F"/>
<path d="M36.4684 26.6445H33.2716C32.5429 26.6445 31.9512 27.2373 31.9512 27.965V31.1618C31.9512 31.8905 32.5439 32.4822 33.2716 32.4822H36.4684C37.1972 32.4822 37.7889 31.8895 37.7889 31.1618V27.965C37.7889 27.2362 37.1961 26.6445 36.4684 26.6445ZM36.2047 30.8981H33.5364V28.2297H36.2047V30.8981Z" fill="#C2AE8F"/>
<path d="M29.9197 19.3725C29.9197 18.6437 29.327 18.052 28.5993 18.052H25.4025C24.6737 18.052 24.082 18.6447 24.082 19.3725V22.5692C24.082 23.298 24.6748 23.8897 25.4025 23.8897H28.5993C29.328 23.8897 29.9197 23.297 29.9197 22.5692V19.3725ZM28.3345 22.3056H25.6662V19.6372H28.3345V22.3056Z" fill="#C2AE8F"/>
<path d="M22.0486 19.3725C22.0486 18.6437 21.4559 18.052 20.7282 18.052H17.5314C16.8026 18.052 16.2109 18.6447 16.2109 19.3725V22.5692C16.2109 23.298 16.8037 23.8897 17.5314 23.8897H20.7282C21.457 23.8897 22.0486 23.297 22.0486 22.5692V19.3725ZM20.4634 22.3056H17.7951V19.6372H20.4634V22.3056Z" fill="#C2AE8F"/>
<path d="M37.7908 19.3725C37.7908 18.6437 37.1981 18.052 36.4704 18.052H33.2736C32.5448 18.052 31.9531 18.6447 31.9531 19.3725V22.5692C31.9531 23.298 32.5459 23.8897 33.2736 23.8897H36.4704C37.1991 23.8897 37.7908 23.297 37.7908 22.5692V19.3725ZM36.2056 22.3056H33.5373V19.6372H36.2056V22.3056Z" fill="#C2AE8F"/>
<path d="M29.9197 10.7799C29.9197 10.0512 29.327 9.45947 28.5993 9.45947H25.4025C24.6737 9.45947 24.082 10.0522 24.082 10.7799V13.9767C24.082 14.7055 24.6748 15.2972 25.4025 15.2972H28.5993C29.328 15.2972 29.9197 14.7044 29.9197 13.9767V10.7799ZM28.3345 13.712H25.6662V11.0436H28.3345V13.712Z" fill="#C2AE8F"/>
<path d="M22.0486 10.7799C22.0486 10.0512 21.4559 9.45947 20.7282 9.45947H17.5314C16.8026 9.45947 16.2109 10.0522 16.2109 10.7799V13.9767C16.2109 14.7055 16.8037 15.2972 17.5314 15.2972H20.7282C21.457 15.2972 22.0486 14.7044 22.0486 13.9767V10.7799ZM20.4634 13.712H17.7951V11.0436H20.4634V13.712Z" fill="#C2AE8F"/>
<path d="M37.7908 10.7799C37.7908 10.0512 37.1981 9.45947 36.4704 9.45947H33.2736C32.5448 9.45947 31.9531 10.0522 31.9531 10.7799V13.9767C31.9531 14.7055 32.5459 15.2972 33.2736 15.2972H36.4704C37.1991 15.2972 37.7908 14.7044 37.7908 13.9767V10.7799ZM36.2056 13.712H33.5373V11.0436H36.2056V13.712Z" fill="#C2AE8F"/>
</g>
<defs>
<clipPath id="clip0_1027_12822">
<rect width="54" height="54" fill="white"/>
</clipPath>
</defs>
</svg>
